<svg width="18" height="18" viewBox="0 0 18 18" fill="none" xmlns="http://www.w3.org/2000/svg">
                        <path d="M9.00033 0.666504C4.40033 0.666504 0.666992 4.39984 0.666992 8.99984C0.666992 13.5998 4.40033 17.3332 9.00033 17.3332C13.6003 17.3332 17.3337 13.5998 17.3337 8.99984C17.3337 4.39984 13.6003 0.666504 9.00033 0.666504ZM8.16699 15.6082C4.87533 15.1998 2.33366 12.3998 2.33366 8.99984C2.33366 8.48317 2.40033 7.9915 2.50866 7.50817L6.50033 11.4998V12.3332C6.50033 13.2498 7.25033 13.9998 8.16699 13.9998V15.6082ZM13.917 13.4915C13.7003 12.8165 13.0837 12.3332 12.3337 12.3332H11.5003V9.83317C11.5003 9.37484 11.1253 8.99984 10.667 8.99984H5.66699V7.33317H7.33366C7.79199 7.33317 8.16699 6.95817 8.16699 6.49984V4.83317H9.83366C10.7503 4.83317 11.5003 4.08317 11.5003 3.1665V2.82484C13.942 3.8165 15.667 6.20817 15.667 8.99984C15.667 10.7332 15.0003 12.3082 13.917 13.4915Z" fill="#364766"/>
                    </svg>